<?xml version="1.0" encoding="utf-8"?>
<!-- Generator: Adobe Illustrator 15.0.0, SVG Export Plug-In . SVG Version: 6.00 Build 0)  -->
<!DOCTYPE svg PUBLIC "-//W3C//DTD SVG 1.1//EN" "http://www.w3.org/Graphics/SVG/1.1/DTD/svg11.dtd">
<svg version="1.1" xmlns="http://www.w3.org/2000/svg" xmlns:xlink="http://www.w3.org/1999/xlink" x="0px" y="0px" width="117.5px"
	 height="25px" viewBox="0 0 117.5 25" enable-background="new 0 0 117.5 25" xml:space="preserve">
<filter  id="AI_FlouGaussien_7">
	<feGaussianBlur  stdDeviation="7"></feGaussianBlur>
</filter>
<g id="Calque_1" display="none">
	<circle display="inline" opacity="0.25" cx="65.167" cy="32.5" r="65"/>
	<circle display="inline" cx="65.167" cy="32.5" r="55.334"/>
	<g display="inline" opacity="0.1" filter="url(#AI_FlouGaussien_7)">
		<circle fill="#FFFFFF" cx="65.167" cy="32.5" r="35.667"/>
	</g>
	<circle display="inline" fill="none" cx="65.167" cy="32.5" r="58.334"/>
	<text transform="matrix(1 0 0 1 30.2764 20.8203)" display="inline"><tspan x="0" y="0" fill="#FFFFFF" font-family="'Tindra-Regular'" font-size="31.5148">Come</tspan><tspan x="7.989" y="37.817" fill="#FFFFFF" font-family="'Tindra-Regular'" font-size="31.5148">Here</tspan></text>
</g>
<g id="Calque_2">
	<g>
		<path fill="#FFFFFF" d="M19.093,7.992h0.24l-2.482,8.563h-0.324l-2.519-8.264h-0.024l-2.471,8.264h-0.324L8.658,7.992H8.91
			l2.423,8.264h0.024l2.471-8.264h0.348l2.507,8.264h0.024L19.093,7.992z"/>
		<path fill="#FFFFFF" d="M20.106,12.214v4.342h-0.24V7.992h0.24v3.982h5.997V7.992h0.24v8.563h-0.24v-4.342H20.106z"/>
		<path fill="#FFFFFF" d="M28.266,13.737l-1.14,2.818H26.85l3.478-8.563h0.312l3.382,8.563h-0.264l-1.127-2.818H28.266z
			 M32.535,13.497l-2.039-5.265h-0.024l-2.111,5.265H32.535z"/>
		<path fill="#FFFFFF" d="M32.802,8.232v-0.24h6.405v0.24h-3.083v8.323h-0.24V8.232H32.802z"/>
		<path fill="#FFFFFF" d="M40.134,7.992v1.415c0,0.852-0.12,1.056-0.54,1.283v-0.239c0.24-0.156,0.3-0.444,0.3-1.044V7.992H40.134z"
			/>
		<path fill="#FFFFFF" d="M47.379,10.391c-0.06-1.751-1.235-2.362-2.783-2.362c-1.211,0-2.687,0.432-2.687,1.967
			c0,1.547,1.487,1.728,2.951,2.075c1.595,0.407,2.927,0.6,2.927,2.387c0,1.619-1.56,2.303-3.023,2.303
			c-1.943,0-3.382-0.888-3.346-3.047h0.24c0,2.051,1.284,2.807,3.106,2.807c1.343,0,2.783-0.6,2.783-2.075
			c0-1.727-1.679-1.87-2.999-2.194c-1.391-0.324-2.878-0.575-2.878-2.255c0-1.703,1.547-2.207,2.926-2.207
			c1.679,0,2.939,0.684,3.023,2.603H47.379z"/>
		<path fill="#FFFFFF" d="M52.949,13.737l-1.14,2.818h-0.275l3.478-8.563h0.312l3.383,8.563h-0.264l-1.128-2.818H52.949z
			 M57.219,13.497L55.18,8.232h-0.023l-2.111,5.265H57.219z"/>
		<path fill="#FFFFFF" d="M59.142,7.992h3.683c1.343,0,2.41,0.708,2.41,2.135c0,1.031-0.768,1.883-1.811,1.955v0.024
			c1.115,0.035,2.074,0.803,2.074,2.122c0,1.535-1.175,2.327-2.818,2.327h-3.538V7.992z M59.382,11.975h3.442
			c1.139,0,2.17-0.624,2.17-1.848c0-1.295-0.947-1.895-2.17-1.895h-3.442V11.975z M59.382,16.315h3.406
			c1.391,0,2.471-0.671,2.471-2.074c0-1.499-1.224-2.027-2.435-2.027h-3.442V16.315z"/>
		<path fill="#FFFFFF" d="M70.24,7.788c2.566,0,3.945,2.051,3.945,4.486c0,2.435-1.379,4.485-3.945,4.485
			c-2.567,0-3.946-2.051-3.946-4.485C66.294,9.839,67.673,7.788,70.24,7.788z M70.24,16.52c2.303,0,3.682-1.774,3.705-4.245
			c-0.023-2.471-1.402-4.246-3.705-4.246s-3.683,1.775-3.706,4.246C66.558,14.745,67.938,16.52,70.24,16.52z"/>
		<path fill="#FFFFFF" d="M81.254,7.992h0.24v5.373c0,2.267-1.128,3.395-3.143,3.395s-3.143-1.128-3.143-3.395V7.992h0.24v5.373
			c0,2.039,0.947,3.154,2.902,3.154s2.902-1.115,2.902-3.154V7.992z"/>
		<path fill="#FFFFFF" d="M81.941,8.232v-0.24h6.404v0.24h-3.082v8.323h-0.239V8.232H81.941z"/>
		<path fill="#FFFFFF" d="M99.793,7.992h0.396v8.563h-0.239V8.292h-0.024l-3.634,8.264h-0.264l-3.635-8.264h-0.023v8.264h-0.24
			V7.992h0.396l3.622,8.252h0.024L99.793,7.992z"/>
		<path fill="#FFFFFF" d="M101.729,16.315h5.493v0.24h-5.733V7.992h5.686v0.24h-5.445v3.742h5.121v0.239h-5.121V16.315z"/>
	</g>
	<path fill="none" stroke="#FFFFFF" stroke-width="0.25" stroke-miterlimit="10" d="M114.722,18.441
		c0,3.131-2.538,5.669-5.669,5.669H6.891c-3.131,0-5.669-2.538-5.669-5.669V7.279c0-3.131,2.538-5.669,5.669-5.669h102.162
		c3.131,0,5.669,2.538,5.669,5.669V18.441z"/>
</g>
</svg>
